<svg id="Layer_1" data-name="Layer 1" xmlns="http://www.w3.org/2000/svg" viewBox="0 0 625 150"><defs><style>.cls-1,.cls-2{fill:#fff;}.cls-2{stroke:#fff;stroke-miterlimit:10;stroke-width:3px;}</style></defs><title>linguorecap</title><path class="cls-1" d="M52.89,99.72V40.28H71.36V99.72Z"/><path class="cls-1" d="M84.22,99.72V40.28h18.47v3a22.69,22.69,0,0,1,6.7-3.37,24.68,24.68,0,0,1,8.07-1.2,20.65,20.65,0,0,1,11.13,3,20,20,0,0,1,7.51,8.59,30.77,30.77,0,0,1,2.74,13.39v36.1H120.36V66.06a12.46,12.46,0,0,0-2-7.47c-1.36-1.84-3.52-2.81-6.48-2.81a8.65,8.65,0,0,0-6.8,2.65c-1.6,1.77-2.4,4.34-2.4,7.63V99.72Z"/><path class="cls-1" d="M269,40.28V99.72H250.49v-3a22.73,22.73,0,0,1-6.69,3.45,27.07,27.07,0,0,1-8.07,1.21,20.78,20.78,0,0,1-11.14-3,20.15,20.15,0,0,1-7.5-8.67,30.39,30.39,0,0,1-2.74-13.39V40.28h18.47V73.86a12.5,12.5,0,0,0,2,7.39c1.45,1.92,3.53,2.81,6.43,2.81a8.68,8.68,0,0,0,6.82-2.65c1.61-1.77,2.41-4.26,2.41-7.63V40.28Z"/><path class="cls-1" d="M308,101.24a30.73,30.73,0,0,1-12-2.41,28.5,28.5,0,0,1-9.64-6.67,30.29,30.29,0,0,1-6.27-10,36.58,36.58,0,0,1,0-25.14,29.3,29.3,0,0,1,16-16.63,31.67,31.67,0,0,1,23.93,0A29.91,29.91,0,0,1,336,57a35.68,35.68,0,0,1,0,25.14,29.25,29.25,0,0,1-6.35,10,27.43,27.43,0,0,1-9.56,6.67A31.4,31.4,0,0,1,308,101.24Zm0-17.19a10.73,10.73,0,0,0,8.67-4.1A16.21,16.21,0,0,0,320,69.51a15.74,15.74,0,0,0-3.29-10.44,11.45,11.45,0,0,0-16.15-1.21l-.48.48-.72.73a15.68,15.68,0,0,0-3.21,10.44A16.14,16.14,0,0,0,299.34,80,10.74,10.74,0,0,0,308,84.05Z"/><path class="cls-1" d="M194.27,40.28h-8.84v2.56A29,29,0,0,0,179,39.71a23.93,23.93,0,0,0-16.87.88,25.13,25.13,0,0,0-8,5.78,27.2,27.2,0,0,0-5.54,9,32.11,32.11,0,0,0-2,11.41,30.75,30.75,0,0,0,3.13,14.13,23.79,23.79,0,0,0,8.6,9.48,22.51,22.51,0,0,0,12.45,3.38,24,24,0,0,0,7.87-1.29,32.29,32.29,0,0,0,6-3.45v2.12a9.42,9.42,0,0,1-4.08,8.06,16.51,16.51,0,0,1-8.78,2.8v17h.57a36.57,36.57,0,0,0,15.74-3.45,25.2,25.2,0,0,0,11-9.88c2.66-4.42,4-9.8,4-16.39V39.48ZM182.62,74.17a9.79,9.79,0,0,1-7.39,3,10.16,10.16,0,0,1-7.71-3,10.75,10.75,0,0,1-2.89-8,11.25,11.25,0,0,1,2.89-8.12,9.94,9.94,0,0,1,7.71-3,9.75,9.75,0,0,1,7.47,3.13,11.35,11.35,0,0,1,2.82,8,11,11,0,0,1-2.9,7.87Z"/><path class="cls-1" d="M21.56,82.05V38.67H3.09V99.72h41V82.05Z"/><path class="cls-2" d="M372.48,33.56a15.49,15.49,0,0,0-7.7,2A20,20,0,0,0,358.61,41a26.43,26.43,0,0,0-4.13,8.14,33,33,0,0,0-1.48,10,21.15,21.15,0,0,0,2.49,10.15,25.46,25.46,0,0,0,6.91,8.1,33.35,33.35,0,0,0,10.41,5.4,42.28,42.28,0,0,0,13.06,1.93,48.6,48.6,0,0,0,9.7-.93,37.06,37.06,0,0,0,8-2.49A17.29,17.29,0,0,0,409,77.62a6.47,6.47,0,0,0,2-4.5,6.37,6.37,0,0,0-.67-3.09,12.68,12.68,0,0,0-1.52-2.23,22.28,22.28,0,0,1-1.53-2,4.57,4.57,0,0,1-.67-2.56,5.71,5.71,0,0,1,.75-2.83,8,8,0,0,1,2-2.38,10.55,10.55,0,0,1,6.43-2.23,7.84,7.84,0,0,1,4.06,1.12A10.5,10.5,0,0,1,423.16,60a15.82,15.82,0,0,1,2.16,4.61,19.77,19.77,0,0,1,.78,5.62,20.89,20.89,0,0,1-3.2,11.19,28.73,28.73,0,0,1-8.85,8.89,46.49,46.49,0,0,1-13.39,5.83,63,63,0,0,1-16.8,2.12,60.46,60.46,0,0,1-18.52-2.71A46.11,46.11,0,0,1,350.73,88a34.86,34.86,0,0,1-9.56-11.45A31.12,31.12,0,0,1,337.75,62a44.3,44.3,0,0,1,3-16.29A43.29,43.29,0,0,1,349,32.37a39.26,39.26,0,0,1,12.16-9.08A33.76,33.76,0,0,1,376,20a25.07,25.07,0,0,1,6.43.78,17.39,17.39,0,0,1,5.09,2.19,11.41,11.41,0,0,1,3.39,3.31,7.65,7.65,0,0,1,.44,7.51,10.07,10.07,0,0,1-2,2.83,10.24,10.24,0,0,1-2.94,2,8.53,8.53,0,0,1-3.53.74,4.89,4.89,0,0,1-3.09-.89,15.23,15.23,0,0,1-2.12-2,16.8,16.8,0,0,0-2.08-2A4.71,4.71,0,0,0,372.48,33.56Z"/><path class="cls-2" d="M419.7,13.7c0-2.58.75-4.41,2.23-5.5s3.94-1.64,7.36-1.64a12.11,12.11,0,0,1,3.13.37,5.22,5.22,0,0,1,2.23,1.23,6.27,6.27,0,0,1,1.45,2.31,19.37,19.37,0,0,1,.93,3.68q1,6.61,2,13.87t1.93,14.42q.93,7.19,1.75,14t1.45,12.65q.63,5.84,1,10.33t.33,7.1A18.41,18.41,0,0,1,445,91a6.22,6.22,0,0,1-1.64,3,6.64,6.64,0,0,1-3,1.59,17.52,17.52,0,0,1-4.5.49,6.05,6.05,0,0,1-4.13-1.34,5.15,5.15,0,0,1-1.52-4.09q0-2.82-.45-7.55c-.3-3.15-.69-6.65-1.19-10.52s-1.05-8-1.67-12.35-1.27-8.67-1.94-12.94S423.63,39,423,35s-1.18-7.44-1.67-10.49S420.45,19,420.15,17,419.7,14,419.7,13.7Z"/><path class="cls-2" d="M468.41,22.55a12.73,12.73,0,0,1-4.05-.63,9.73,9.73,0,0,1-3.27-1.79,8.84,8.84,0,0,1-2.2-2.71,7.32,7.32,0,0,1-.82-3.42,6.09,6.09,0,0,1,2.5-5.06A10.54,10.54,0,0,1,467.22,7a10,10,0,0,1,3.72.7,11.27,11.27,0,0,1,3.16,1.9,9,9,0,0,1,2.19,2.79,7.14,7.14,0,0,1,.82,3.31,6,6,0,0,1-2.34,5A10.12,10.12,0,0,1,468.41,22.55ZM458.22,45.23A5.1,5.1,0,0,1,460.49,41a9.82,9.82,0,0,1,6-1.68q6.69,0,7.14,4.61c.19,2.14.41,4.54.63,7.22s.45,5.51.67,8.51.42,6.1.59,9.3.34,6.34.49,9.44.27,6.09.37,9,.15,5.51.15,7.89a6.37,6.37,0,0,1-2.64,5.57q-2.64,1.86-7.7,1.86a5.49,5.49,0,0,1-3.61-1.08,3.89,3.89,0,0,1-1.3-3.16q0-10.26-.48-19.22t-1-16q-.56-7-1-11.64T458.22,45.23Z"/><path class="cls-2" d="M483.06,46.5a4.86,4.86,0,0,1,2.6-4.43,15,15,0,0,1,7.44-1.52,6.64,6.64,0,0,1,2,.29,3.64,3.64,0,0,1,1.6,1.16,9,9,0,0,1,1.3,2.34,34.25,34.25,0,0,1,1.19,3.79c.39,1.74.79,2.6,1.19,2.6s.77-.71,1.26-2.15a27.3,27.3,0,0,1,3.53-7.4,23.45,23.45,0,0,1,4.95-5.28,19.48,19.48,0,0,1,6-3.16,21.84,21.84,0,0,1,6.8-1,33.38,33.38,0,0,1,13.46,2.71,32.58,32.58,0,0,1,10.78,7.51,35.23,35.23,0,0,1,7.14,11.31,37.45,37.45,0,0,1,2.61,14.09,39,39,0,0,1-2.79,14.87A35,35,0,0,1,546.34,94a35.51,35.51,0,0,1-11.86,7.73,39.66,39.66,0,0,1-15.06,2.79l-3.79-.15c-2.23,0-3.34,1.27-3.34,3.79l3.79,34.14a4.38,4.38,0,0,1-.86,2.34,7.37,7.37,0,0,1-2.08,1.9,10.84,10.84,0,0,1-3.05,1.26,14.38,14.38,0,0,1-3.6.45q-5.36,0-5.81-3.5-1.56-13.53-3.45-25.73t-3.87-22.72q-2-10.52-3.83-19.15t-3.31-15q-1.46-6.39-2.3-10.41A33.69,33.69,0,0,1,483.06,46.5Zm24.17,19.63c0,3.22.12,6.41.37,9.55s.65,6.56,1.19,10.23a4,4,0,0,0,3.64,3.79c1.29.3,2.74.59,4.36.86a25.33,25.33,0,0,0,4.05.41,24.74,24.74,0,0,0,8.62-1.42,18.6,18.6,0,0,0,6.62-4,17.93,17.93,0,0,0,4.24-6.28,21.3,21.3,0,0,0,1.49-8.11A33.66,33.66,0,0,0,540.32,61a27.92,27.92,0,0,0-4.05-8.22,19.84,19.84,0,0,0-6-5.5,14.65,14.65,0,0,0-7.48-2,13.29,13.29,0,0,0-6.36,1.53A14.81,14.81,0,0,0,511.5,51a20.24,20.24,0,0,0-3.16,6.58A30.85,30.85,0,0,0,507.23,66.13Z"/><path class="cls-2" d="M583.75,33.85A42.71,42.71,0,0,1,594,35.16a52.53,52.53,0,0,1,9.67,3.34,29.23,29.23,0,0,1,7.21,4.58c1.89,1.68,2.83,3.32,2.83,4.9a4.66,4.66,0,0,1-1,2.64,16.65,16.65,0,0,1-2.53,2.76,15,15,0,0,1-3.23,2.15,6,6,0,0,1-7.07-.63q-2.19-1.49-4.83-3.31a41.59,41.59,0,0,0-5.77-3.31,15.52,15.52,0,0,0-6.76-1.49A6.31,6.31,0,0,0,578.58,48a3.82,3.82,0,0,0-1.52,3.23,5.58,5.58,0,0,0,1.78,3.76,29.48,29.48,0,0,0,4.72,3.9q2.94,2,6.66,4.24t7.62,4.76a90.58,90.58,0,0,1,7.62,5.5,47.52,47.52,0,0,1,6.66,6.47,30.74,30.74,0,0,1,4.72,7.62,22.38,22.38,0,0,1,1.79,9,18.85,18.85,0,0,1-1.49,7.58,16.54,16.54,0,0,1-4.24,5.87,19.25,19.25,0,0,1-6.54,3.8A25,25,0,0,1,598,115a31,31,0,0,1-10.56-1.75,26.11,26.11,0,0,1-8.33-4.8,21.57,21.57,0,0,1-7.44-16.58c0-4.36.78-7.54,2.35-9.52s4-3,7.4-3a9.09,9.09,0,0,1,5,1.19,3.42,3.42,0,0,1,1.86,2.9,5.93,5.93,0,0,1-.3,1.82l-.63,1.93c-.23.67-.42,1.38-.6,2.12a10,10,0,0,0-.26,2.23,8.28,8.28,0,0,0,.89,3.72,10.7,10.7,0,0,0,2.42,3.16,11.79,11.79,0,0,0,3.53,2.19,11.08,11.08,0,0,0,4.24.82c4,0,5.95-1.63,5.95-4.91a10.94,10.94,0,0,0-3-7.32,45.24,45.24,0,0,0-7.66-6.77q-4.61-3.3-9.92-6.65a113.92,113.92,0,0,1-9.93-7A40.69,40.69,0,0,1,565.31,61a14.7,14.7,0,0,1-3-9,16.31,16.31,0,0,1,1.67-7.36A17.76,17.76,0,0,1,568.51,39a21.26,21.26,0,0,1,6.8-3.76A25.93,25.93,0,0,1,583.75,33.85Z"/></svg>