<svg id="Layer_1" data-name="Layer 1" xmlns="http://www.w3.org/2000/svg" viewBox="0 0 400 400"><defs><style>.cls-1{fill:tomato;stroke:tomato;stroke-miterlimit:10;stroke-width:5.17px;}</style></defs><title>rounder</title><path class="cls-1" d="M256.35,12a179.91,179.91,0,0,0-55.7-5.74c-.48,0-1,0-1.44,0-37.7-1.39-73,7.13-105,27.24C42.48,66,12.92,113,5.79,173.86c-1.11,9.42-.66,18.9-.89,28.37A186.34,186.34,0,0,0,208.83,393.6c33.81-3.12,64.36-15,91.89-34.78,7.63-5.49,14.19-12.26,21.64-17.92,70.76-53.81,94.35-149.45,55.57-228.95C352.75,60.34,311.8,27.09,256.35,12ZM143.5,30.06c2.75-1,5.48-2.12,8.25-3.1s5.6-1.93,8.43-2.78,5.87-1.7,8.83-2.43A144.31,144.31,0,0,1,201.3,17c9.86-.17,19.63,1.48,29.24,3.69,49.32,11.37,87.3,38.68,114.31,81.4.44.7.83,1.42,1.08,1.86q-3.44-4.41-7-8.57,2.56,3.7,5,7.57c.44.7.83,1.42,1.08,1.86q-78-100-202.43-73.91l3.83-1.47ZM367.74,177.11A121.74,121.74,0,0,1,369.21,213a166.32,166.32,0,0,1-7.39,36.58c-19.46,62.55-74.1,110.17-138.54,121.86-24.8,4.49-48.54,1.12-71.53-7.45-60.57-22.57-98.94-65.5-115-128.2A142.85,142.85,0,0,1,33.55,218a183.14,183.14,0,0,1-1.42-22.36c.09-5.55.41-11,.93-16.39C36.58,135.54,54,97.67,85.71,65.85,89.17,62.38,93.5,60,97.62,57.4,165.29,14.59,255,23.17,313.4,78,342.29,105.15,360.17,138.23,367.74,177.11ZM68.17,67.55c2-2,3.92-3.85,5.76-5.51,12.61-11.37,35.43-26.22,43.49-28.46l-1.5,1.06a6.61,6.61,0,0,1,.64-.2C97.36,47.93,78.49,62.08,61.71,78.68A223,223,0,0,0,41,102.3a3.11,3.11,0,0,1,.08-.37l-1,1.23C40.8,98.56,55.49,80.15,68.17,67.55Zm-44.42,86a168.49,168.49,0,0,1,15.3-33.25c.53-.88,1.11-1.73,1.66-2.6l.93.12c-19,43.59-22.18,88.16-7.76,133.45s42.8,79.61,83.26,104.37c-1.29.58-2-.24-2.79-.64q-80.1-41.37-97.52-129.82C12,200.59,16.09,176.9,23.75,153.56ZM40.19,303.15c1.32,0,1.61,1,2.11,1.68a186.36,186.36,0,0,0,80.88,62.92,184.51,184.51,0,0,0,73.95,13.41c11.46-.24,22.94.36,34.38-1.05A214,214,0,0,0,258,375.29c1-.25,1.92-.72,3-.17C192.52,405.66,92.84,388.12,40.19,303.15Zm301.45,4.28A153.5,153.5,0,0,1,319,335.17C310.89,343,300.9,348.11,291,353.24c-2.74,1.41-2.75,1.38-4.42,1.34A187.77,187.77,0,0,0,344,302.32c.38-.52.43-1.66,1.53-1.46v0l.08,0h-.09C344.72,303.35,343,305.3,341.64,307.43Zm19-15.93c10.06-21.67,16.5-44.41,17.78-68.39,1.71-31.78.62-63.27-11.06-93.54q-23.73-61.48-80.06-95.52c-.62-.37-1.26-.71-1.89-1.06l.61-.6C330.64,54,362.7,87.54,379.27,134.59,398.67,189.7,391.44,242.16,360.68,291.5Z"/></svg>